# xmcd CD Database Entry
#
# Track frame offsets:
# 150
# 13727
# 32995
# 53455
# 72530
# 87810
# 113575
# 126760
# 139187
# 151595
# 166362
# 180792
#
# Disc length: 2584 seconds
#
# Revision: 1
# Processed by: cddbd v1.4PL0 Copyright (c) Steve Scherf et al.
# Submitted via: RSJCDWriter_freedb_lib_OS/2 1.02
#
DISCID=8e0a160c
DTITLE=The Soulmates - The Soulmates
DYEAR=1900
DGENRE=
TTITLE0=Love Star
TTITLE1=Voodoo Girl
TTITLE2=Lonely Love Louis
TTITLE3=Starlit Night
TTITLE4=Chain Gang
TTITLE5=Going To My Valley
TTITLE6=She's My Angel
TTITLE7=Security
TTITLE8=8:th Wonder
TTITLE9=Puzzled Over You
TTITLE10=Open Up Your Arms
TTITLE11=Stronger Than Love
EXTD=p 2001 Last Buzz Record Co.\nBUZZ-8021
EXTT0=
EXTT1=
EXTT2=
EXTT3=
EXTT4=
EXTT5=
EXTT6=
EXTT7=
EXTT8=
EXTT9=
EXTT10=
EXTT11=
PLAYORDER=
